<svg width="24" height="24" viewBox="0 0 24 24" fill="none" xmlns="http://www.w3.org/2000/svg">
<path d="M20.98 3.02C20.11 2.15 18.88 1.81 17.69 2.11L7.88998 4.56C6.23998 4.97 4.96998 6.25 4.55998 7.89L2.10998 17.7C1.80998 18.89 2.14998 20.12 3.01998 20.99C3.67998 21.64 4.54998 22 5.44998 22C5.72998 22 6.01998 21.97 6.29998 21.89L16.11 19.44C17.75 19.03 19.03 17.76 19.44 16.11L21.89 6.3C22.19 5.11 21.85 3.88 20.98 3.02ZM12 15.88C9.85998 15.88 8.11998 14.14 8.11998 12C8.11998 9.86 9.85998 8.12 12 8.12C14.14 8.12 15.88 9.86 15.88 12C15.88 14.14 14.14 15.88 12 15.88Z" fill="#9D9D9D"/>
</svg>
