<svg width="24" height="24" viewBox="0 0 24 24" fill="none" xmlns="http://www.w3.org/2000/svg">
<path d="M8 22H16C19.3137 22 22 19.3137 22 16V8C22 4.68629 19.3137 2 16 2H8C4.68629 2 2 4.68629 2 8V16C2 19.3137 4.68629 22 8 22Z" fill="#9D9D9D"/>
<path d="M13.5453 8.23256C14.2362 8.23256 14.8015 7.73023 14.8015 7.11628C14.8015 6.50233 14.2362 6 13.5453 6C12.8543 6 12.289 6.50233 12.289 7.11628C12.289 7.73023 12.8543 8.23256 13.5453 8.23256ZM11.5541 14.9302L11.9121 13.5349L13.2312 14.6512V17.4419C13.2312 17.7488 13.5139 18 13.8593 18C14.2048 18 14.4875 17.7488 14.4875 17.4419V14.294C14.4875 13.987 14.3493 13.6967 14.098 13.4847L13.1684 12.6977L13.5453 11.0233C14.2531 11.7423 15.2222 12.2183 16.2839 12.3684C16.6608 12.4186 17 12.1507 17 11.8102C17 11.5367 16.7739 11.3079 16.4661 11.2633C15.5113 11.1237 14.7199 10.6214 14.299 9.96279L13.6709 9.06977C13.4196 8.73488 13.0428 8.51163 12.6031 8.51163C12.4146 8.51163 12.289 8.56744 12.1006 8.56744L9.6006 9.50512C9.37304 9.59155 9.17908 9.7355 9.04283 9.91908C8.90659 10.1027 8.83407 10.3178 8.83428 10.5377V11.8605C8.83428 12.1674 9.11694 12.4186 9.46241 12.4186C9.80789 12.4186 10.0905 12.1674 10.0905 11.8605V10.5209L11.2212 10.1302L10.2162 14.6512L7.75389 14.2047C7.4147 14.1433 7.08179 14.3386 7.0127 14.64V14.6623C6.9436 14.9637 7.16345 15.2595 7.50264 15.3209L10.0843 15.7786C10.4054 15.8352 10.7387 15.7783 11.0132 15.6198C11.2877 15.4614 11.4818 15.2139 11.5541 14.9302Z" fill="white"/>
</svg>
