<svg width="24" height="24" viewBox="0 0 24 24" fill="none" xmlns="http://www.w3.org/2000/svg">
<path d="M21.3763 12.6223C21.2939 12.6228 21.2122 12.607 21.1359 12.5759C21.0596 12.5448 20.9902 12.499 20.9317 12.441L11.9826 3.50093L3.03359 12.441C2.91379 12.5434 2.75969 12.597 2.60208 12.5909C2.44446 12.5848 2.29495 12.5196 2.18342 12.4082C2.07189 12.2969 2.00655 12.1476 2.00047 11.9903C1.99438 11.8329 2.04799 11.6791 2.15059 11.5595L11.5443 2.1818C11.6616 2.06536 11.8203 2 11.9858 2C12.1512 2 12.3099 2.06536 12.4273 2.1818L21.821 11.5595C21.9072 11.6473 21.9655 11.7584 21.9887 11.8791C22.012 11.9998 21.9991 12.1247 21.9516 12.2381C21.9042 12.3515 21.8243 12.4484 21.722 12.5167C21.6197 12.5851 21.4994 12.6218 21.3763 12.6223Z" fill="white"/>
<path d="M11.9827 5.61401L4.46771 13.1412V20.7496C4.46771 21.0812 4.59967 21.3993 4.83456 21.6338C5.06945 21.8683 5.38802 22 5.7202 22H10.1039V15.7482H13.8614V22H18.2451C18.5773 22 18.8959 21.8683 19.1308 21.6338C19.3657 21.3993 19.4976 21.0812 19.4976 20.7496V13.0974L11.9827 5.61401Z" fill="white"/>
</svg>
