<svg width="24" height="24" viewBox="0 0 24 24" fill="none" xmlns="http://www.w3.org/2000/svg">
<path d="M21.7525 10.4801L19.517 9.8134C19.3625 9.27427 19.1499 8.75346 18.8831 8.26007L19.9775 6.21341C20.0185 6.13616 20.0336 6.04774 20.0204 5.96127C20.0071 5.8748 19.9664 5.7949 19.9041 5.73342L18.3092 4.13342C18.2476 4.0712 18.1677 4.03047 18.0811 4.01726C17.9946 4.00405 17.906 4.01907 17.8287 4.06009L15.7934 5.14675C15.2947 4.86719 14.7665 4.64361 14.2185 4.48009L13.5512 2.27343C13.523 2.19211 13.4697 2.12183 13.3989 2.07272C13.3282 2.0236 13.2436 1.99817 13.1575 2.0001H10.902C10.8153 2.00051 10.7311 2.02852 10.6615 2.08008C10.5918 2.13164 10.5405 2.20405 10.5149 2.28677L9.84763 4.48676C9.2951 4.64941 8.76242 4.87301 8.25942 5.15342L6.25747 4.07343C6.18014 4.0324 6.09163 4.01738 6.00508 4.03059C5.91853 4.0438 5.83855 4.08454 5.777 4.14676L4.15543 5.72675C4.09315 5.78823 4.05237 5.86813 4.03915 5.9546C4.02592 6.04107 4.04096 6.12949 4.08202 6.20675L5.16307 8.20674C4.88284 8.70713 4.65903 9.23703 4.49576 9.78673L2.28695 10.4534C2.20415 10.4789 2.13167 10.5302 2.08006 10.5998C2.02845 10.6693 2.0004 10.7535 2 10.8401V13.0934C2.0004 13.1799 2.02845 13.2641 2.08006 13.3337C2.13167 13.4032 2.20415 13.4545 2.28695 13.48L4.50911 14.1467C4.67416 14.6872 4.89793 15.2081 5.17642 15.7L4.08202 17.7934C4.04096 17.8706 4.02592 17.959 4.03915 18.0455C4.05237 18.132 4.09315 18.2119 4.15543 18.2734L5.75031 19.8667C5.81185 19.9289 5.89183 19.9696 5.97839 19.9828C6.06494 19.9961 6.15345 19.981 6.23078 19.94L8.29278 18.84C8.78057 19.103 9.2951 19.313 9.82761 19.4667L10.4949 21.7133C10.5205 21.7961 10.5718 21.8685 10.6414 21.92C10.711 21.9716 10.7953 21.9996 10.882 22H13.1375C13.2241 21.9996 13.3084 21.9716 13.378 21.92C13.4476 21.8685 13.499 21.7961 13.5245 21.7133L14.1919 19.46C14.7198 19.3056 15.2298 19.0955 15.7133 18.8333L17.7887 19.94C17.866 19.981 17.9545 19.9961 18.0411 19.9828C18.1276 19.9696 18.2076 19.9289 18.2691 19.8667L19.864 18.2734C19.9263 18.2119 19.9671 18.132 19.9803 18.0455C19.9935 17.959 19.9785 17.8706 19.9374 17.7934L18.8297 15.7267C19.0949 15.2418 19.3074 14.73 19.4636 14.2L21.7125 13.5334C21.7953 13.5078 21.8678 13.4566 21.9194 13.387C21.971 13.3175 21.999 13.2333 21.9994 13.1467V10.8734C22.0034 10.7905 21.9818 10.7084 21.9377 10.6381C21.8936 10.5678 21.8289 10.5126 21.7525 10.4801ZM12.0297 15.6667C11.3038 15.6667 10.5942 15.4517 9.99068 15.0488C9.38711 14.6459 8.91669 14.0732 8.6389 13.4032C8.3611 12.7332 8.28842 11.996 8.43004 11.2847C8.57165 10.5735 8.92121 9.92013 9.4345 9.40734C9.94779 8.89455 10.6018 8.54534 11.3137 8.40386C12.0257 8.26238 12.7636 8.33499 13.4343 8.61251C14.1049 8.89003 14.6781 9.35999 15.0814 9.96297C15.4847 10.5659 15.7 11.2749 15.7 12.0001C15.7 12.9725 15.3133 13.9051 14.625 14.5928C13.9367 15.2804 13.0032 15.6667 12.0297 15.6667Z" fill="#9D9D9D"/>
</svg>
